<svg width="24" height="20" viewBox="0 0 24 20" fill="none" xmlns="http://www.w3.org/2000/svg">
<path d="M22.2535 9.23076C22.0932 9.22972 21.9372 9.17862 21.8074 9.0846L11.4843 1.71537L1.16122 9.0846C0.995609 9.18269 0.799241 9.21512 0.610883 9.1755C0.422525 9.13588 0.255866 9.02708 0.143806 8.87058C0.0317465 8.71408 -0.0175702 8.52126 0.00559174 8.33018C0.0287537 8.1391 0.122711 7.96364 0.268915 7.83845L11.0381 0.146143C11.1684 0.0533857 11.3244 0.00354004 11.4843 0.00354004C11.6442 0.00354004 11.8002 0.0533857 11.9305 0.146143L22.6997 7.83845C22.831 7.93353 22.929 8.06767 22.9795 8.22173C23.03 8.37579 23.0306 8.54188 22.9811 8.69628C22.9317 8.85068 22.8347 8.9855 22.704 9.08149C22.5733 9.17748 22.4157 9.22972 22.2535 9.23076Z" fill="#495A75"/>
<path d="M3.02276 4.61538C2.81875 4.61538 2.62309 4.53434 2.47884 4.39008C2.33458 4.24582 2.25353 4.05017 2.25353 3.84615V0.769231C2.25353 0.565218 2.33458 0.369561 2.47884 0.225302C2.62309 0.0810437 2.81875 0 3.02276 0H6.09969C6.3037 0 6.49936 0.0810437 6.64361 0.225302C6.78787 0.369561 6.86892 0.565218 6.86892 0.769231C6.86892 0.973243 6.78787 1.1689 6.64361 1.31316C6.49936 1.45742 6.3037 1.53846 6.09969 1.53846H3.79199V3.84615C3.79199 4.05017 3.71095 4.24582 3.56669 4.39008C3.42243 4.53434 3.22678 4.61538 3.02276 4.61538Z" fill="#495A75"/>
<path d="M18.4074 20H14.5612C14.3572 20 14.1616 19.919 14.0173 19.7747C13.873 19.6304 13.792 19.4348 13.792 19.2308V13.8462H9.17661V19.2308C9.17661 19.4348 9.09557 19.6304 8.95131 19.7747C8.80705 19.919 8.61139 20 8.40738 20H4.56122C3.94919 20 3.36222 19.7569 2.92944 19.3241C2.49666 18.8913 2.25353 18.3044 2.25353 17.6923V10C2.25353 9.79599 2.33458 9.60034 2.47884 9.45608C2.62309 9.31182 2.81875 9.23077 3.02276 9.23077C3.22678 9.23077 3.42243 9.31182 3.56669 9.45608C3.71095 9.60034 3.79199 9.79599 3.79199 10V17.6923C3.79199 17.8963 3.87304 18.092 4.0173 18.2362C4.16156 18.3805 4.35721 18.4615 4.56122 18.4615H7.63815V13.0769C7.63815 12.8729 7.71919 12.6773 7.86345 12.533C8.00771 12.3887 8.20337 12.3077 8.40738 12.3077H14.5612C14.7652 12.3077 14.9609 12.3887 15.1052 12.533C15.2494 12.6773 15.3305 12.8729 15.3305 13.0769V18.4615H18.4074C18.6114 18.4615 18.807 18.3805 18.9513 18.2362C19.0956 18.092 19.1766 17.8963 19.1766 17.6923V10C19.1766 9.79599 19.2577 9.60034 19.4019 9.45608C19.5462 9.31182 19.7418 9.23077 19.9458 9.23077C20.1499 9.23077 20.3455 9.31182 20.4898 9.45608C20.634 9.60034 20.7151 9.79599 20.7151 10V17.6923C20.7151 18.3044 20.4719 18.8913 20.0392 19.3241C19.6064 19.7569 19.0194 20 18.4074 20V20Z" fill="#495A75"/>
</svg>
