<svg width="330" height="130" viewBox="0 0 330 130" fill="none" xmlns="http://www.w3.org/2000/svg">
<rect width="328" height="130" rx="10" fill="#EDFCFD"/>
<path d="M48.172 73.58C48.364 74.012 48.46 74.396 48.46 74.732C48.46 75.404 48.184 75.98 47.632 76.46C47.104 76.916 46.492 77.144 45.796 77.144C45.34 77.144 44.908 77.024 44.5 76.784C44.092 76.52 43.78 76.136 43.564 75.632L41.656 71.384H29.452L27.544 75.632C27.328 76.136 27.016 76.52 26.608 76.784C26.224 77.024 25.792 77.144 25.312 77.144C24.616 77.144 23.992 76.916 23.44 76.46C22.888 75.98 22.612 75.404 22.612 74.732C22.612 74.396 22.708 74.012 22.9 73.58L32.62 53.168C32.884 52.592 33.28 52.16 33.808 51.872C34.336 51.56 34.9 51.404 35.5 51.404C36.124 51.404 36.7 51.56 37.228 51.872C37.756 52.184 38.164 52.616 38.452 53.168L48.172 73.58ZM31.36 67.136H39.748L35.572 57.776L31.36 67.136ZM57.4676 77.288C56.0036 77.288 54.7316 77.168 53.6516 76.928C52.5716 76.688 51.6236 76.304 50.8076 75.776C50.4476 75.56 50.1716 75.272 49.9796 74.912C49.7876 74.552 49.6916 74.144 49.6916 73.688C49.6916 73.136 49.8476 72.68 50.1596 72.32C50.4716 71.936 50.8556 71.744 51.3116 71.744C51.6236 71.744 51.9356 71.804 52.2476 71.924C52.5596 72.02 52.8836 72.14 53.2196 72.284C53.8916 72.596 54.5516 72.848 55.1996 73.04C55.8476 73.208 56.6516 73.292 57.6116 73.292C58.4516 73.292 59.0996 73.16 59.5556 72.896C60.0356 72.632 60.2756 72.272 60.2756 71.816C60.2756 71.48 60.1676 71.216 59.9516 71.024C59.7596 70.808 59.3876 70.616 58.8356 70.448C58.2836 70.28 57.4076 70.076 56.2076 69.836C54.0716 69.428 52.5356 68.816 51.5996 68C50.6636 67.184 50.1956 66.044 50.1956 64.58C50.1956 63.5 50.5196 62.528 51.1676 61.664C51.8396 60.8 52.7516 60.128 53.9036 59.648C55.0556 59.144 56.3516 58.892 57.7916 58.892C58.8236 58.892 59.8316 59.024 60.8156 59.288C61.7996 59.552 62.6756 59.924 63.4436 60.404C64.1876 60.86 64.5596 61.532 64.5596 62.42C64.5596 62.996 64.4036 63.476 64.0916 63.86C63.7796 64.244 63.3956 64.436 62.9396 64.436C62.3876 64.436 61.7276 64.22 60.9596 63.788C60.3596 63.476 59.8076 63.248 59.3036 63.104C58.8236 62.936 58.2476 62.852 57.5756 62.852C56.8316 62.852 56.2436 62.996 55.8116 63.284C55.3796 63.548 55.1636 63.92 55.1636 64.4C55.1636 64.904 55.4156 65.288 55.9196 65.552C56.4236 65.816 57.3956 66.08 58.8356 66.344C60.4436 66.656 61.7036 67.04 62.6156 67.496C63.5276 67.928 64.1876 68.48 64.5956 69.152C65.0036 69.824 65.2076 70.676 65.2076 71.708C65.2076 73.412 64.4996 74.768 63.0836 75.776C61.6916 76.784 59.8196 77.288 57.4676 77.288ZM77.9668 73.256C78.6868 73.304 79.2148 73.484 79.5508 73.796C79.8868 74.108 80.0548 74.564 80.0548 75.164C80.0548 75.86 79.7788 76.388 79.2268 76.748C78.6748 77.108 77.8828 77.252 76.8508 77.18L75.8428 77.108C71.6428 76.772 69.5428 74.576 69.5428 70.52V63.392H68.1028C67.3108 63.392 66.7108 63.224 66.3028 62.888C65.8948 62.528 65.6908 62.024 65.6908 61.376C65.6908 60.704 65.8948 60.2 66.3028 59.864C66.7108 59.504 67.3108 59.324 68.1028 59.324H69.5428V56.516C69.5428 55.724 69.7828 55.1 70.2628 54.644C70.7668 54.188 71.4388 53.96 72.2788 53.96C73.1188 53.96 73.7788 54.188 74.2588 54.644C74.7388 55.1 74.9788 55.724 74.9788 56.516V59.324H77.4988C79.1308 59.324 79.9468 60.008 79.9468 61.376C79.9468 62.024 79.7428 62.528 79.3348 62.888C78.9268 63.224 78.3148 63.392 77.4988 63.392H74.9788V70.916C74.9788 71.636 75.1468 72.188 75.4828 72.572C75.8188 72.932 76.3108 73.136 76.9588 73.184L77.9668 73.256ZM92.6087 58.964C93.3287 58.916 93.8927 59.084 94.3007 59.468C94.7327 59.828 94.9487 60.38 94.9487 61.124C94.9487 61.916 94.7567 62.504 94.3727 62.888C93.9887 63.272 93.3047 63.512 92.3207 63.608L91.2407 63.716C89.9207 63.86 88.9607 64.292 88.3607 65.012C87.7847 65.732 87.4967 66.656 87.4967 67.784V74.66C87.4967 75.5 87.2327 76.136 86.7047 76.568C86.2007 77 85.5647 77.216 84.7967 77.216C84.0047 77.216 83.3447 77 82.8167 76.568C82.3127 76.136 82.0607 75.5 82.0607 74.66V61.448C82.0607 60.656 82.3247 60.044 82.8527 59.612C83.3807 59.18 84.0167 58.964 84.7607 58.964C85.4807 58.964 86.0807 59.18 86.5607 59.612C87.0407 60.02 87.2807 60.596 87.2807 61.34V62.312C87.7127 61.28 88.3607 60.488 89.2247 59.936C90.1127 59.384 91.0727 59.072 92.1047 59L92.6087 58.964ZM104.654 77.288C102.782 77.288 101.138 76.916 99.7223 76.172C98.3063 75.404 97.2143 74.336 96.4463 72.968C95.6783 71.576 95.2943 69.944 95.2943 68.072C95.2943 66.2 95.6783 64.58 96.4463 63.212C97.2143 61.82 98.3063 60.752 99.7223 60.008C101.138 59.264 102.782 58.892 104.654 58.892C106.526 58.892 108.17 59.264 109.586 60.008C111.002 60.752 112.094 61.82 112.862 63.212C113.63 64.58 114.014 66.2 114.014 68.072C114.014 69.944 113.63 71.576 112.862 72.968C112.094 74.336 111.002 75.404 109.586 76.172C108.17 76.916 106.526 77.288 104.654 77.288ZM104.654 73.148C107.294 73.148 108.614 71.456 108.614 68.072C108.614 66.368 108.266 65.096 107.57 64.256C106.898 63.416 105.926 62.996 104.654 62.996C102.014 62.996 100.694 64.688 100.694 68.072C100.694 71.456 102.014 73.148 104.654 73.148ZM128.266 58.892C129.802 58.892 131.158 59.264 132.334 60.008C133.51 60.752 134.422 61.82 135.07 63.212C135.742 64.58 136.078 66.176 136.078 68C136.078 69.824 135.742 71.444 135.07 72.86C134.422 74.252 133.498 75.344 132.298 76.136C131.122 76.904 129.778 77.288 128.266 77.288C127.042 77.288 125.938 77.036 124.954 76.532C123.97 76.004 123.214 75.284 122.686 74.372V74.66C122.686 75.428 122.446 76.052 121.966 76.532C121.486 76.988 120.838 77.216 120.022 77.216C119.206 77.216 118.546 76.988 118.042 76.532C117.562 76.052 117.322 75.428 117.322 74.66V53.924C117.322 53.18 117.574 52.58 118.078 52.124C118.606 51.668 119.29 51.44 120.13 51.44C120.922 51.44 121.558 51.656 122.038 52.088C122.518 52.52 122.758 53.096 122.758 53.816V61.7C123.286 60.812 124.03 60.128 124.99 59.648C125.974 59.144 127.066 58.892 128.266 58.892ZM126.682 73.148C127.954 73.148 128.938 72.704 129.634 71.816C130.33 70.904 130.678 69.632 130.678 68C130.678 66.392 130.33 65.168 129.634 64.328C128.938 63.464 127.954 63.032 126.682 63.032C125.41 63.032 124.426 63.476 123.73 64.364C123.034 65.228 122.686 66.464 122.686 68.072C122.686 69.704 123.034 70.964 123.73 71.852C124.426 72.716 125.41 73.148 126.682 73.148ZM147.896 77.288C146.025 77.288 144.381 76.916 142.965 76.172C141.549 75.404 140.457 74.336 139.688 72.968C138.921 71.576 138.537 69.944 138.537 68.072C138.537 66.2 138.921 64.58 139.688 63.212C140.457 61.82 141.549 60.752 142.965 60.008C144.381 59.264 146.025 58.892 147.896 58.892C149.769 58.892 151.413 59.264 152.829 60.008C154.245 60.752 155.337 61.82 156.105 63.212C156.873 64.58 157.257 66.2 157.257 68.072C157.257 69.944 156.873 71.576 156.105 72.968C155.337 74.336 154.245 75.404 152.829 76.172C151.413 76.916 149.769 77.288 147.896 77.288ZM147.896 73.148C150.537 73.148 151.857 71.456 151.857 68.072C151.857 66.368 151.509 65.096 150.813 64.256C150.141 63.416 149.169 62.996 147.896 62.996C145.257 62.996 143.937 64.688 143.937 68.072C143.937 71.456 145.257 73.148 147.896 73.148ZM170.217 73.256C170.937 73.304 171.465 73.484 171.801 73.796C172.137 74.108 172.305 74.564 172.305 75.164C172.305 75.86 172.029 76.388 171.477 76.748C170.925 77.108 170.133 77.252 169.101 77.18L168.093 77.108C163.893 76.772 161.793 74.576 161.793 70.52V63.392H160.353C159.561 63.392 158.961 63.224 158.553 62.888C158.145 62.528 157.941 62.024 157.941 61.376C157.941 60.704 158.145 60.2 158.553 59.864C158.961 59.504 159.561 59.324 160.353 59.324H161.793V56.516C161.793 55.724 162.033 55.1 162.513 54.644C163.017 54.188 163.689 53.96 164.529 53.96C165.369 53.96 166.029 54.188 166.509 54.644C166.989 55.1 167.229 55.724 167.229 56.516V59.324H169.749C171.381 59.324 172.197 60.008 172.197 61.376C172.197 62.024 171.993 62.528 171.585 62.888C171.177 63.224 170.565 63.392 169.749 63.392H167.229V70.916C167.229 71.636 167.397 72.188 167.733 72.572C168.069 72.932 168.561 73.136 169.209 73.184L170.217 73.256Z" fill="#112340"/>
<path d="M254 35C242.402 35 233 44.402 233 56H238V53H239.78C245.729 53 251.483 50.872 256 47V35H254Z" fill="#E56565"/>
<path d="M267 57C264.243 57 262 59.243 262 62C262 64.757 264.243 67 267 67C269.757 67 272 64.757 272 62C272 59.243 269.757 57 267 57ZM270 62C270 62.462 269.887 62.894 269.699 63.285L268.414 62L269.699 60.715C269.887 61.106 270 61.538 270 62ZM268.285 59.301L267 60.586L265.715 59.301C266.106 59.113 266.538 59 267 59C267.462 59 267.894 59.113 268.285 59.301ZM264.301 63.285C264.113 62.894 264 62.462 264 62C264 61.538 264.113 61.106 264.301 60.715L265.586 62L264.301 63.285ZM265.715 64.699L267 63.414L268.285 64.699C267.894 64.887 267.462 65 267 65C266.538 65 266.106 64.887 265.715 64.699Z" fill="#E56565"/>
<path d="M232 56H234C234 44.972 242.972 36 254 36H255V46.534C250.721 50.062 245.334 52 239.78 52H237V71C237 77.486 241.78 82.863 248 83.83V96H257V86H255V94H250V84H257V34H254C241.869 34 232 43.869 232 56ZM250 82C243.935 82 239 77.065 239 71V54H239.78C245.26 54 250.59 52.259 255 49.062V75.858C253.28 75.411 252 73.859 252 72H250C250 74.967 252.167 77.431 255 77.91V82H250Z" fill="#112340"/>
<path d="M227 65C227 68.859 230.14 72 234 72H235V58H234C230.14 58 227 61.14 227 65ZM233 69.899C230.721 69.435 229 67.415 229 65C229 62.585 230.721 60.565 233 60.101V69.899Z" fill="#112340"/>
<path d="M247 60C245.346 60 244 61.346 244 63C244 64.654 245.346 66 247 66C248.654 66 250 64.654 250 63C250 61.346 248.654 60 247 60ZM247 64C246.449 64 246 63.551 246 63C246 62.449 246.449 62 247 62C247.551 62 248 62.449 248 63C248 63.551 247.551 64 247 64Z" fill="#112340"/>
<path d="M282 58H281V72H282C285.86 72 289 68.859 289 65C289 61.14 285.86 58 282 58ZM283 69.899V60.1C285.279 60.564 287 62.585 287 64.999C287 67.415 285.279 69.435 283 69.899Z" fill="#112340"/>
<path d="M259 54H277V71C277 77.065 272.065 82 266 82H259V84H266C273.168 84 279 78.168 279 71V52H259V54Z" fill="#112340"/>
<path d="M266 34H259V36H261V40H259V42H263V36H265V44H259V46H267V36.051C272.598 36.558 277 41.272 277 47V50H279V47C279 39.832 273.168 34 266 34Z" fill="#112340"/>
<path d="M281 44H283V39.816C284.161 39.402 285 38.302 285 37C285 35.346 283.654 34 282 34C280.346 34 279 35.346 279 37C279 38.302 279.839 39.402 281 39.816V44ZM282 36C282.551 36 283 36.449 283 37C283 37.551 282.551 38 282 38C281.449 38 281 37.551 281 37C281 36.449 281.449 36 282 36Z" fill="#112340"/>
<path d="M271 74C271 71.794 269.206 70 267 70H259V72H261V76H259V78H267C269.206 78 271 76.206 271 74ZM269 74C269 75.103 268.103 76 267 76V72C268.103 72 269 72.897 269 74ZM263 72H265V76H263V72Z" fill="#112340"/>
<path d="M262 48H260V50H262V48Z" fill="#112340"/>
<path d="M267 48H265V50H267V48Z" fill="#112340"/>
<path d="M272 48H270V50H272V48Z" fill="#112340"/>
<path d="M267 86H265V90H259V92H272V94H259V96H274V90H267V86Z" fill="#112340"/>
<path d="M283 46H281V56H283V46Z" fill="#112340"/>
<circle cx="25" cy="107" r="11" fill="#112340" fill-opacity="0.2"/>
<circle cx="115.5" cy="94.5" r="3.5" fill="#112340" fill-opacity="0.2"/>
<circle cx="216.5" cy="26.5" r="3.5" fill="#112340" fill-opacity="0.2"/>
<circle cx="303" cy="19" r="11" fill="#112340" fill-opacity="0.2"/>
<path opacity="0.1" d="M294.533 74.2612C284.822 81.515 288.595 92.1121 294.766 100.599C296.832 103.44 299.169 106.447 298.297 109.494C297.231 113.22 291.571 115.945 285.628 117.389C274.794 120.021 261.83 119.394 251.875 115.756C243.273 112.611 237.112 107.498 228.363 104.497C213.721 99.4744 195.083 101.371 179.184 104.831C167.936 107.278 155.638 110.461 144.461 107.903C136.596 106.104 131.159 101.723 128.197 97.0791C126.767 94.8371 125.729 92.4104 122.998 90.6333C121.375 89.5768 119.256 88.8269 117.085 88.1946C97.265 82.4207 72.2321 85.5127 52.9808 79.1087C39.9792 74.7836 31.6556 66.6251 27.9701 58.118C24.2847 49.6109 24.714 40.6906 25.6497 31.9294C26.3146 25.7033 27.5077 19.0562 34.2788 14.2509C41.4417 9.16753 53.7347 7.27732 64.8459 8.24351C75.9571 9.2097 86.0285 12.6533 94.8889 16.7094C105.962 21.7785 116.232 28.0908 129.828 30.1442C139.087 31.5426 148.827 30.7777 158.376 30.5128C174.34 30.07 190.311 31.0548 206.187 32.1331C221.386 33.1654 235.5 33 251.875 30.1442C266 29.5 274.825 30.893 284.5 33.5C290 38 292.494 47.7694 298.465 49.9338C305.821 52.6 312.565 57.2375 310.68 62.664C308.888 67.8234 299.687 70.4112 294.533 74.2612Z" fill="#122442"/>
</svg>
